<svg width="50" height="50" viewBox="0 0 50 50" fill="none" xmlns="http://www.w3.org/2000/svg">
<rect width="50" height="50" rx="17" fill="#DFDFDF"/>
<path fill-rule="evenodd" clip-rule="evenodd" d="M15 20C15 17.2386 17.2386 15 20 15H30C32.7614 15 35 17.2386 35 20V30C35 32.7614 32.7614 35 30 35H20C17.2386 35 15 32.7614 15 30V20ZM22.8107 25.75L24.5303 27.4697C24.8232 27.7626 24.8232 28.2374 24.5303 28.5303C24.2374 28.8232 23.7626 28.8232 23.4697 28.5303L21.1768 26.2374C20.4934 25.554 20.4934 24.446 21.1768 23.7626L23.4697 21.4697C23.7626 21.1768 24.2374 21.1768 24.5303 21.4697C24.8232 21.7626 24.8232 22.2374 24.5303 22.5303L22.8107 24.25H29C29.4142 24.25 29.75 24.5858 29.75 25C29.75 25.4142 29.4142 25.75 29 25.75H22.8107Z" fill="#4309D9"/>
</svg>
