<svg width="50" height="50" viewBox="0 0 50 50" fill="none" xmlns="http://www.w3.org/2000/svg">
<rect width="50" height="50" rx="17" fill="#DFDFDF"/>
<path fill-rule="evenodd" clip-rule="evenodd" d="M14 24.75C14 18.8129 18.8129 14 24.75 14C30.6871 14 35.5 18.8129 35.5 24.75C35.5 30.6871 30.6871 35.5 24.75 35.5C18.8129 35.5 14 30.6871 14 24.75ZM26 23.75C26 23.3358 25.6642 23 25.25 23H23.25C22.8358 23 22.5 23.3358 22.5 23.75C22.5 24.1642 22.8358 24.5 23.25 24.5H24.5V29.75C24.5 30.1642 24.8358 30.5 25.25 30.5C25.6642 30.5 26 30.1642 26 29.75V23.75ZM26 19.75C26 19.3358 25.6642 19 25.25 19C24.8358 19 24.5 19.3358 24.5 19.75V20.75C24.5 21.1642 24.8358 21.5 25.25 21.5C25.6642 21.5 26 21.1642 26 20.75V19.75Z" fill="#4309D9"/>
</svg>
